<svg width="50" height="40" viewBox="0 0 50 40" fill="none" xmlns="http://www.w3.org/2000/svg">
<path d="M17.1215 9.38721C19.7067 9.38721 21.8101 7.27921 21.8101 4.68827C21.8101 2.10343 19.7067 0 17.1215 0C14.5363 0 12.4332 2.10342 12.4332 4.68827C12.4332 7.27921 14.5363 9.38721 17.1215 9.38721ZM17.1215 1.5625C18.8454 1.5625 20.2476 2.96478 20.2476 4.68827C20.2476 6.41785 18.8454 7.82471 17.1215 7.82471C15.398 7.82471 13.9957 6.41785 13.9957 4.68827C13.9957 2.96478 15.398 1.5625 17.1215 1.5625Z" fill="#495057"/>
<path d="M49.2188 37.5899H48.8521C48.5153 36.3923 47.4394 35.5004 46.1433 35.4681C45.5664 34.3298 44.3055 33.7137 43.0367 33.9407C42.6364 32.8623 41.6946 32.0601 40.5476 31.8357C40.3691 30.886 40.0942 28.6871 40.7093 26.273C43.0634 26.1778 46.6984 24.8956 47.324 20.3589C47.3339 20.2803 47.5567 18.4134 47.012 16.738C46.9101 16.4252 46.6232 16.21 46.2944 16.1993C46.0571 16.1902 40.5361 16.0559 38.8184 20.0011C38.6161 20.3818 37.556 22.6705 39.2297 25.656C38.5129 28.2628 38.752 30.6744 38.9673 31.9067C37.9454 32.2074 37.1225 32.9829 36.7615 33.9987C35.437 33.6353 34.0298 34.2362 33.4064 35.4681C32.1072 35.4978 31.0282 36.3903 30.6908 37.5899H15.8524C15.906 37.4622 15.9568 37.3326 15.9908 37.1939L17.2771 31.3071C17.4774 30.493 17.4187 29.6515 17.1078 28.8733L15.0158 23.6357C14.9572 23.4894 14.9541 23.3314 14.9762 23.176L19.0385 24.238L20.8626 25.9428C21.8298 26.7981 23.3441 26.6476 24.112 25.5644L26.6892 26.2382L25.2789 28.1065C25.1221 28.3141 25.079 28.5864 25.164 28.8321C25.2491 29.0785 25.4509 29.2662 25.7027 29.3326L32.6958 31.1835C33.1169 31.2935 33.5413 31.0423 33.651 30.628C33.7612 30.2107 33.5125 29.7835 33.0956 29.6728L27.227 28.1195L28.2541 26.7586L34.2217 28.62C34.6417 28.7483 35.0736 28.5125 35.2001 28.1065C35.3287 27.6945 35.099 27.2566 34.687 27.1277L29.2544 25.4332L30.1556 24.2392L36.1629 26.0847C36.5726 26.2114 37.0121 25.9794 37.1391 25.5675C37.2658 25.1547 37.0342 24.7175 36.6215 24.5909L30.0911 22.5851C29.779 22.4905 29.4361 22.5989 29.2381 22.8613L27.7076 24.8889L24.5071 24.0523C24.4519 23.554 24.2266 23.0743 23.838 22.7034L20.8412 19.8431C20.4071 19.4296 20.1229 18.8742 20.0405 18.2799L19.371 13.4619C19.2139 12.3289 18.4601 11.3516 17.4042 10.9106L12.5664 8.8919C11.7214 8.54019 10.7624 8.56155 9.93384 8.94989L4.30602 11.5935C3.45381 11.994 2.787 12.7333 2.47687 13.6221L1.13028 17.4796C0.693883 18.7277 1.35077 20.1071 2.59436 20.5557C3.62273 20.9288 4.41576 20.4627 4.50538 20.4386L5.85026 20.7902L5.59653 21.5636C5.52825 21.7711 5.48819 21.9878 5.47713 22.2067L5.15594 28.5689C5.11359 29.4012 4.78744 30.2046 4.23698 30.8302C4.21866 30.8508 4.20112 30.873 4.18509 30.8958L1.46255 34.7617C0.774148 35.5704 0.6505 36.6751 1.06802 37.5899H0.78125C0.349805 37.5899 0 37.9393 0 38.3711C0 38.8029 0.349805 39.1524 0.78125 39.1524C12.7781 39.1524 37.204 39.1524 49.2188 39.1524C49.6502 39.1524 50 38.8029 50 38.3711C50 37.9393 49.6502 37.5899 49.2188 37.5899ZM40.1955 20.7373C40.2122 20.7091 40.2271 20.6801 40.2397 20.6496C41.2491 18.2875 44.3737 17.8534 45.6711 17.7763C45.9141 18.9627 45.7752 20.1521 45.7748 20.1559C45.3071 23.5486 42.7905 24.4252 41.2621 24.6434C41.8257 23.3462 42.6993 22.0589 44.0403 20.9395C44.3718 20.6633 44.416 20.1704 44.1395 19.8393C43.8629 19.5075 43.3704 19.4632 43.0393 19.7402C41.6408 20.9075 40.6817 22.2188 40.028 23.5474C39.577 21.8862 40.166 20.7905 40.1955 20.7373ZM34.6912 36.476C34.9178 35.4976 36.1058 35.147 36.8412 35.7634C37.3081 36.1553 38.1249 35.828 38.1249 35.1126C38.1249 34.1292 38.9221 33.3289 39.9021 33.3289C40.8535 33.3289 41.6348 34.0712 41.6801 35.0195C41.6935 35.2957 41.8514 35.5437 42.0956 35.6726C42.6863 35.9893 42.8482 35.4567 43.557 35.4567C45.16 35.4567 44.5509 37.3585 45.7939 37.0619C46.3551 36.9353 46.8643 37.1817 47.1577 37.5884H32.3856C33.1957 36.4647 34.4201 37.6523 34.6912 36.476ZM15.5509 21.7108L15.9931 20.6725L16.0076 20.7831C16.0671 21.2401 16.2853 21.665 16.6225 21.9801L16.6386 21.9952L15.5509 21.7108ZM5.67279 19.1283C5.68886 19.0855 5.71241 19.0471 5.72624 19.0031L6.66923 15.9972C6.72378 15.8232 6.85081 15.6798 7.01638 15.6042L7.64542 15.3189L6.33846 19.3024L5.67279 19.1283ZM2.66533 35.7596C2.70947 35.7091 3.49795 34.5832 5.43899 31.8289C6.20422 30.9439 6.65741 29.8163 6.71616 28.6482L7.03735 22.2861C7.04155 22.206 7.05642 22.1266 7.08122 22.0503L9.68475 14.1142C9.78127 13.8197 9.69467 13.4962 9.46388 13.2887C9.23271 13.082 8.90159 13.0301 8.61931 13.1598L6.36941 14.1821C5.79987 14.4415 5.36576 14.9321 5.17846 15.5287L4.23547 18.5355C4.08794 19.0034 3.58303 19.2514 3.12462 19.0863C2.68365 18.9268 2.45057 18.4378 2.60545 17.9953L3.95241 14.1371C4.12484 13.642 4.49601 13.2307 4.97055 13.008L10.598 10.3644C11.0287 10.1614 11.5273 10.1515 11.9652 10.3339L16.8022 12.3526C17.3504 12.5815 17.7418 13.0888 17.8234 13.6771L18.4925 18.495C18.6237 19.4372 19.0746 20.3177 19.7624 20.9738L22.7593 23.8341C22.987 24.0515 23.0225 24.3971 22.8443 24.6565C22.6179 24.9842 22.1671 25.0097 21.9135 24.787L17.6895 20.8388C17.6167 20.7709 17.5697 20.6793 17.5572 20.5816L17.173 17.6268C17.1276 17.2773 16.8537 17.0012 16.5047 16.9539C16.1583 16.902 15.8177 17.0965 15.6796 17.4215L13.5864 22.3356C13.3293 22.9391 13.3217 23.6067 13.5647 24.2155L15.6567 29.4531C15.8463 29.9261 15.8818 30.4381 15.7551 30.953L14.4688 36.8399C14.3383 37.3715 13.7996 37.6934 13.2744 37.5601C12.7652 37.4326 12.4 36.9141 12.5771 36.2936L13.4045 32.778C13.7512 31.5809 13.6399 30.3053 13.0909 29.1853L11.1866 25.302C11.0543 25.0319 10.7804 24.8648 10.4855 24.8648C10.4538 24.8648 10.4218 24.8663 10.3897 24.8709C10.0594 24.9113 9.79082 25.157 9.72101 25.482L8.82112 29.6835C8.72346 30.1375 8.53959 30.5594 8.25159 30.9714L4.39453 37.1191C4.01864 37.6555 3.23286 37.767 2.72789 37.2786C2.30293 36.8697 2.27547 36.2021 2.66533 35.7596ZM9.55277 31.835C9.93958 31.2849 10.2074 30.6708 10.3489 30.0116L10.7765 28.015L11.6878 29.8735C12.0655 30.6433 12.1418 31.5207 11.8938 32.3813L11.0664 35.8969C10.9017 36.4658 10.9497 37.0541 11.1769 37.5899H5.94258L9.55277 31.835Z" fill="#495057"/>
</svg>
