<svg width="100" height="100" viewBox="0 0 100 100" fill="none" xmlns="http://www.w3.org/2000/svg">
<g clip-path="url(#clip0_2035_14)">
<path d="M92.1875 50.7812H83.5938V48.4375C83.592 46.9876 83.0153 45.5977 81.9901 44.5724C80.9648 43.5472 79.5749 42.9705 78.125 42.9688H71.875C70.4251 42.9705 69.0352 43.5472 68.0099 44.5724C66.9847 45.5977 66.408 46.9876 66.4062 48.4375V50.7812H57.8125C55.9483 50.7833 54.1611 51.5247 52.8429 52.8429C51.5247 54.1611 50.7833 55.9483 50.7812 57.8125V82.8125C50.7833 84.6767 51.5247 86.4639 52.8429 87.7821C54.1611 89.1003 55.9483 89.8417 57.8125 89.8438H92.1875C94.0517 89.8417 95.8389 89.1003 97.1571 87.7821C98.4753 86.4639 99.2167 84.6767 99.2188 82.8125V57.8125C99.2167 55.9483 98.4753 54.1611 97.1571 52.8429C95.8389 51.5247 94.0517 50.7833 92.1875 50.7812ZM71.0938 48.4375C71.094 48.2304 71.1764 48.0318 71.3229 47.8854C71.4693 47.7389 71.6679 47.6565 71.875 47.6562H78.125C78.3321 47.6565 78.5307 47.7389 78.6771 47.8854C78.8236 48.0318 78.906 48.2304 78.9062 48.4375V50.7812H71.0938V48.4375ZM92.1875 77.3438H89.8438V78.125C89.8438 78.7466 89.5968 79.3427 89.1573 79.7823C88.7177 80.2218 88.1216 80.4688 87.5 80.4688C86.8784 80.4688 86.2823 80.2218 85.8427 79.7823C85.4032 79.3427 85.1562 78.7466 85.1562 78.125V77.3438H64.8438V78.125C64.8438 78.7466 64.5968 79.3427 64.1573 79.7823C63.7177 80.2218 63.1216 80.4688 62.5 80.4688C61.8784 80.4688 61.2823 80.2218 60.8427 79.7823C60.4032 79.3427 60.1562 78.7466 60.1562 78.125V77.3438H57.8125C57.1909 77.3438 56.5948 77.0968 56.1552 76.6573C55.7157 76.2177 55.4688 75.6216 55.4688 75C55.4688 74.3784 55.7157 73.7823 56.1552 73.3427C56.5948 72.9032 57.1909 72.6562 57.8125 72.6562H60.1562V71.875C60.1562 71.2534 60.4032 70.6573 60.8427 70.2177C61.2823 69.7782 61.8784 69.5312 62.5 69.5312C63.1216 69.5312 63.7177 69.7782 64.1573 70.2177C64.5968 70.6573 64.8438 71.2534 64.8438 71.875V72.6562H85.1562V71.875C85.1562 71.2534 85.4032 70.6573 85.8427 70.2177C86.2823 69.7782 86.8784 69.5312 87.5 69.5312C88.1216 69.5312 88.7177 69.7782 89.1573 70.2177C89.5968 70.6573 89.8438 71.2534 89.8438 71.875V72.6562H92.1875C92.8091 72.6562 93.4052 72.9032 93.8448 73.3427C94.2843 73.7823 94.5312 74.3784 94.5312 75C94.5312 75.6216 94.2843 76.2177 93.8448 76.6573C93.4052 77.0968 92.8091 77.3438 92.1875 77.3438Z" fill="#DC1735"/>
<path d="M96.875 94.5312H10.1562V7.8125C10.1569 7.19111 10.4041 6.59536 10.8435 6.15597C11.2829 5.71658 11.8786 5.46943 12.5 5.46875H62.5C63.1214 5.46943 63.7171 5.71658 64.1565 6.15597C64.5959 6.59536 64.8431 7.19111 64.8438 7.8125V37.5C64.8438 38.1216 65.0907 38.7177 65.5302 39.1573C65.9698 39.5968 66.5659 39.8438 67.1875 39.8438C67.8091 39.8438 68.4052 39.5968 68.8448 39.1573C69.2843 38.7177 69.5312 38.1216 69.5312 37.5V14.8438H87.5C88.1214 14.8444 88.7171 15.0916 89.1565 15.531C89.5959 15.9704 89.8431 16.5661 89.8438 17.1875V45.3125C89.8438 45.9341 90.0907 46.5302 90.5302 46.9698C90.9698 47.4093 91.5659 47.6562 92.1875 47.6562C92.8091 47.6562 93.4052 47.4093 93.8448 46.9698C94.2843 46.5302 94.5312 45.9341 94.5312 45.3125V17.1875C94.5292 15.3233 93.7878 13.5361 92.4696 12.2179C91.1514 10.8997 89.3642 10.1583 87.5 10.1562H69.5312V7.8125C69.5292 5.94832 68.7878 4.16107 67.4696 2.8429C66.1514 1.52472 64.3642 0.783281 62.5 0.78125H12.5C10.6358 0.783281 8.84857 1.52472 7.5304 2.8429C6.21222 4.16107 5.47078 5.94832 5.46875 7.8125V94.5312H3.125C2.5034 94.5312 1.90726 94.7782 1.46772 95.2177C1.02818 95.6573 0.78125 96.2534 0.78125 96.875C0.78125 97.4966 1.02818 98.0927 1.46772 98.5323C1.90726 98.9718 2.5034 99.2188 3.125 99.2188H96.875C97.4966 99.2188 98.0927 98.9718 98.5323 98.5323C98.9718 98.0927 99.2188 97.4966 99.2188 96.875C99.2188 96.2534 98.9718 95.6573 98.5323 95.2177C98.0927 94.7782 97.4966 94.5312 96.875 94.5312Z" fill="#343279"/>
<path d="M21.0938 15.625C21.0938 15.0034 20.8468 14.4073 20.4073 13.9677C19.9677 13.5282 19.3716 13.2813 18.75 13.2812C18.1284 13.2813 17.5323 13.5282 17.0927 13.9677C16.6532 14.4073 16.4063 15.0034 16.4062 15.625V25C16.4063 25.6216 16.6532 26.2177 17.0927 26.6573C17.5323 27.0968 18.1284 27.3438 18.75 27.3438C19.3716 27.3438 19.9677 27.0968 20.4073 26.6573C20.8468 26.2177 21.0938 25.6216 21.0938 25V15.625Z" fill="#343279"/>
<path d="M58.5938 15.625C58.5938 15.0034 58.3468 14.4073 57.9073 13.9677C57.4677 13.5282 56.8716 13.2813 56.25 13.2812C55.6284 13.2813 55.0323 13.5282 54.5927 13.9677C54.1532 14.4073 53.9062 15.0034 53.9062 15.625V25C53.9062 25.6216 54.1532 26.2177 54.5927 26.6573C55.0323 27.0968 55.6284 27.3438 56.25 27.3438C56.8716 27.3438 57.4677 27.0968 57.9073 26.6573C58.3468 26.2177 58.5938 25.6216 58.5938 25V15.625Z" fill="#343279"/>
<path d="M78.9062 25V31.25C78.9062 31.8716 79.1532 32.4677 79.5927 32.9073C80.0323 33.3468 80.6284 33.5938 81.25 33.5938C81.8716 33.5938 82.4677 33.3468 82.9073 32.9073C83.3468 32.4677 83.5938 31.8716 83.5938 31.25V25C83.5938 24.3784 83.3468 23.7823 82.9073 23.3427C82.4677 22.9032 81.8716 22.6563 81.25 22.6562C80.6284 22.6563 80.0323 22.9032 79.5927 23.3427C79.1532 23.7823 78.9062 24.3784 78.9062 25Z" fill="#343279"/>
<path d="M46.0938 15.625C46.0938 15.0034 45.8468 14.4073 45.4073 13.9677C44.9677 13.5282 44.3716 13.2813 43.75 13.2812C43.1284 13.2813 42.5323 13.5282 42.0927 13.9677C41.6532 14.4073 41.4062 15.0034 41.4062 15.625V25C41.4062 25.6216 41.6532 26.2177 42.0927 26.6573C42.5323 27.0968 43.1284 27.3438 43.75 27.3438C44.3716 27.3438 44.9677 27.0968 45.4073 26.6573C45.8468 26.2177 46.0938 25.6216 46.0938 25V15.625Z" fill="#343279"/>
<path d="M33.5938 15.625C33.5938 15.0034 33.3468 14.4073 32.9073 13.9677C32.4677 13.5282 31.8716 13.2813 31.25 13.2812C30.6284 13.2813 30.0323 13.5282 29.5927 13.9677C29.1532 14.4073 28.9062 15.0034 28.9062 15.625V25C28.9062 25.6216 29.1532 26.2177 29.5927 26.6573C30.0323 27.0968 30.6284 27.3438 31.25 27.3438C31.8716 27.3438 32.4677 27.0968 32.9073 26.6573C33.3468 26.2177 33.5938 25.6216 33.5938 25V15.625Z" fill="#343279"/>
<path d="M21.0938 53.125C21.0938 52.5034 20.8468 51.9073 20.4073 51.4677C19.9677 51.0282 19.3716 50.7812 18.75 50.7812C18.1284 50.7812 17.5323 51.0282 17.0927 51.4677C16.6532 51.9073 16.4063 52.5034 16.4062 53.125V62.5C16.4063 63.1216 16.6532 63.7177 17.0927 64.1573C17.5323 64.5968 18.1284 64.8438 18.75 64.8438C19.3716 64.8438 19.9677 64.5968 20.4073 64.1573C20.8468 63.7177 21.0938 63.1216 21.0938 62.5V53.125Z" fill="#343279"/>
<path d="M46.0938 53.125C46.0938 52.5034 45.8468 51.9073 45.4073 51.4677C44.9677 51.0282 44.3716 50.7812 43.75 50.7812C43.1284 50.7812 42.5323 51.0282 42.0927 51.4677C41.6532 51.9073 41.4062 52.5034 41.4062 53.125V62.5C41.4062 63.1216 41.6532 63.7177 42.0927 64.1573C42.5323 64.5968 43.1284 64.8438 43.75 64.8438C44.3716 64.8438 44.9677 64.5968 45.4073 64.1573C45.8468 63.7177 46.0938 63.1216 46.0938 62.5V53.125Z" fill="#343279"/>
<path d="M33.5938 53.125C33.5938 52.5034 33.3468 51.9073 32.9073 51.4677C32.4677 51.0282 31.8716 50.7812 31.25 50.7812C30.6284 50.7812 30.0323 51.0282 29.5927 51.4677C29.1532 51.9073 28.9062 52.5034 28.9062 53.125V62.5C28.9062 63.1216 29.1532 63.7177 29.5927 64.1573C30.0323 64.5968 30.6284 64.8438 31.25 64.8438C31.8716 64.8438 32.4677 64.5968 32.9073 64.1573C33.3468 63.7177 33.5938 63.1216 33.5938 62.5V53.125Z" fill="#343279"/>
<path d="M18.75 69.5312C18.1284 69.5314 17.5324 69.7784 17.0929 70.2179C16.6534 70.6574 16.4064 71.2534 16.4062 71.875V81.25C16.4063 81.8716 16.6532 82.4677 17.0927 82.9073C17.5323 83.3468 18.1284 83.5938 18.75 83.5938C19.3716 83.5938 19.9677 83.3468 20.4073 82.9073C20.8468 82.4677 21.0938 81.8716 21.0938 81.25V71.875C21.0936 71.2534 20.8466 70.6574 20.4071 70.2179C19.9676 69.7784 19.3716 69.5314 18.75 69.5312Z" fill="#343279"/>
<path d="M43.75 69.5312C43.1284 69.5314 42.5324 69.7784 42.0929 70.2179C41.6534 70.6574 41.4064 71.2534 41.4062 71.875V81.25C41.4062 81.8716 41.6532 82.4677 42.0927 82.9073C42.5323 83.3468 43.1284 83.5938 43.75 83.5938C44.3716 83.5938 44.9677 83.3468 45.4073 82.9073C45.8468 82.4677 46.0938 81.8716 46.0938 81.25V71.875C46.0936 71.2534 45.8466 70.6574 45.4071 70.2179C44.9676 69.7784 44.3716 69.5314 43.75 69.5312Z" fill="#343279"/>
<path d="M31.25 69.5312C30.6284 69.5314 30.0324 69.7784 29.5929 70.2179C29.1534 70.6574 28.9064 71.2534 28.9062 71.875V81.25C28.9062 81.8716 29.1532 82.4677 29.5927 82.9073C30.0323 83.3468 30.6284 83.5938 31.25 83.5938C31.8716 83.5938 32.4677 83.3468 32.9073 82.9073C33.3468 82.4677 33.5938 81.8716 33.5938 81.25V71.875C33.5936 71.2534 33.3466 70.6574 32.9071 70.2179C32.4676 69.7784 31.8716 69.5314 31.25 69.5312Z" fill="#343279"/>
<path d="M21.0938 34.375C21.0938 33.7534 20.8468 33.1573 20.4073 32.7177C19.9677 32.2782 19.3716 32.0312 18.75 32.0312C18.1284 32.0312 17.5323 32.2782 17.0927 32.7177C16.6532 33.1573 16.4063 33.7534 16.4062 34.375V43.75C16.4063 44.3716 16.6532 44.9677 17.0927 45.4073C17.5323 45.8468 18.1284 46.0938 18.75 46.0938C19.3716 46.0938 19.9677 45.8468 20.4073 45.4073C20.8468 44.9677 21.0938 44.3716 21.0938 43.75V34.375Z" fill="#343279"/>
<path d="M56.25 32.0312C55.6284 32.0313 55.0323 32.2782 54.5928 32.7178C54.1532 33.1573 53.9063 33.7534 53.9062 34.375V43.75C53.9062 44.3716 54.1532 44.9677 54.5927 45.4073C55.0323 45.8468 55.6284 46.0938 56.25 46.0938C56.8716 46.0938 57.4677 45.8468 57.9073 45.4073C58.3468 44.9677 58.5938 44.3716 58.5938 43.75V34.375C58.5937 33.7534 58.3468 33.1573 57.9072 32.7177C57.4677 32.2782 56.8716 32.0313 56.25 32.0312Z" fill="#343279"/>
<path d="M46.0938 34.375C46.0938 33.7534 45.8468 33.1573 45.4073 32.7177C44.9677 32.2782 44.3716 32.0312 43.75 32.0312C43.1284 32.0312 42.5323 32.2782 42.0927 32.7177C41.6532 33.1573 41.4062 33.7534 41.4062 34.375V43.75C41.4062 44.3716 41.6532 44.9677 42.0927 45.4073C42.5323 45.8468 43.1284 46.0938 43.75 46.0938C44.3716 46.0938 44.9677 45.8468 45.4073 45.4073C45.8468 44.9677 46.0938 44.3716 46.0938 43.75V34.375Z" fill="#343279"/>
<path d="M33.5938 34.375C33.5938 33.7534 33.3468 33.1573 32.9073 32.7177C32.4677 32.2782 31.8716 32.0312 31.25 32.0312C30.6284 32.0312 30.0323 32.2782 29.5927 32.7177C29.1532 33.1573 28.9062 33.7534 28.9062 34.375V43.75C28.9062 44.3716 29.1532 44.9677 29.5927 45.4073C30.0323 45.8468 30.6284 46.0938 31.25 46.0938C31.8716 46.0938 32.4677 45.8468 32.9073 45.4073C33.3468 44.9677 33.5938 44.3716 33.5938 43.75V34.375Z" fill="#343279"/>
</g>
<defs>
<clipPath id="clip0_2035_14">
<rect width="100" height="100" fill="white"/>
</clipPath>
</defs>
</svg>
