<svg width="150" height="150" viewBox="0 0 150 150" fill="none" xmlns="http://www.w3.org/2000/svg">
<path opacity="0.2" d="M17.3625 34.9042C17.3625 63.725 2.43335 83.5167 2.43335 97.4042C2.43335 111.292 10.4167 140.458 74.3042 140.458C138.192 140.458 147.567 101.221 147.567 85.9459C147.571 14.4167 17.3625 -16.1375 17.3625 34.9042Z" fill="white"/>
<path d="M64.5833 101.042C84.7187 101.042 101.042 84.7187 101.042 64.5833C101.042 44.448 84.7187 28.125 64.5833 28.125C44.448 28.125 28.125 44.448 28.125 64.5833C28.125 84.7187 44.448 101.042 64.5833 101.042Z" fill="#F0ADC6"/>
<path d="M64.5833 59.375C67.4598 59.375 69.7917 57.0432 69.7917 54.1667C69.7917 51.2902 67.4598 48.9584 64.5833 48.9584C61.7069 48.9584 59.375 51.2902 59.375 54.1667C59.375 57.0432 61.7069 59.375 64.5833 59.375Z" fill="#D40000"/>
<path d="M78.1249 83.3334V78.1251C78.1249 73.5209 74.3958 69.7917 69.7916 69.7917H59.375C54.7708 69.7917 51.0416 73.5209 51.0416 78.1251V83.3334H78.1249Z" fill="#DC1735"/>
<path opacity="0.1" d="M37.5 64.5833C37.5 46.0417 51.3542 30.7667 69.2708 28.4583C67.7333 28.2625 66.175 28.125 64.5833 28.125C44.4458 28.125 28.125 44.4458 28.125 64.5833C28.125 84.7208 44.4458 101.042 64.5833 101.042C66.175 101.042 67.7333 100.904 69.2708 100.708C51.3542 98.4 37.5 83.125 37.5 64.5833Z" fill="black"/>
<path d="M68.75 54.1667C68.75 53.375 68.9542 52.6459 69.2708 51.975C68.4375 50.2042 66.6667 48.9584 64.5833 48.9584C61.7083 48.9584 59.375 51.2917 59.375 54.1667C59.375 57.0417 61.7083 59.375 64.5833 59.375C66.6667 59.375 68.4375 58.1292 69.2708 56.3584C68.9542 55.6875 68.75 54.9584 68.75 54.1667Z" fill="#D40000"/>
<path d="M68.75 69.7917H59.375C54.7708 69.7917 51.0416 73.5209 51.0416 78.1251V83.3334H60.4166V78.1251C60.4166 73.5209 64.1458 69.7917 68.75 69.7917Z" fill="#9F0A0A"/>
<path d="M64.5833 104.167C42.7583 104.167 25 86.4083 25 64.5833C25 42.7583 42.7583 25 64.5833 25C86.4083 25 104.167 42.7583 104.167 64.5833C104.167 86.4083 86.4083 104.167 64.5833 104.167ZM64.5833 31.25C46.2042 31.25 31.25 46.2042 31.25 64.5833C31.25 82.9625 46.2042 97.9167 64.5833 97.9167C82.9625 97.9167 97.9167 82.9625 97.9167 64.5833C97.9167 46.2042 82.9625 31.25 64.5833 31.25Z" fill="white"/>
<path d="M86.6602 91.0973L91.0789 86.6785L114.2 109.8L109.781 114.219L86.6602 91.0973Z" fill="white"/>
<path d="M64.5833 62.5C59.9875 62.5 56.25 58.7625 56.25 54.1667C56.25 49.5709 59.9875 45.8334 64.5833 45.8334C69.1792 45.8334 72.9167 49.5709 72.9167 54.1667C72.9167 58.7625 69.1792 62.5 64.5833 62.5ZM64.5833 52.0834C63.4375 52.0834 62.5 53.0167 62.5 54.1667C62.5 55.3167 63.4375 56.25 64.5833 56.25C65.7292 56.25 66.6667 55.3167 66.6667 54.1667C66.6667 53.0167 65.7292 52.0834 64.5833 52.0834Z" fill="white"/>
<path d="M81.25 83.3333H75V78.125C75 75.2541 72.6625 72.9166 69.7916 72.9166H59.375C56.5041 72.9166 54.1666 75.2541 54.1666 78.125V83.3333H47.9166V78.125C47.9166 71.8041 53.0541 66.6666 59.375 66.6666H69.7916C76.1125 66.6666 81.25 71.8041 81.25 78.125V83.3333Z" fill="white"/>
</svg>
