<svg width="110" height="110" viewBox="0 0 110 110" fill="none" xmlns="http://www.w3.org/2000/svg">
<path d="M97.0493 50.9738C93.3062 49.1025 86.2884 49.0808 85.9915 49.0808C85.1016 49.0808 84.3801 49.8023 84.3801 50.6921C84.3801 51.582 85.1016 52.3035 85.9915 52.3035C87.8024 52.3037 93.0602 52.5825 95.6081 53.8563C95.8395 53.9721 96.0852 54.0267 96.3274 54.0267C96.9184 54.0267 97.4875 53.7002 97.7698 53.1358C98.1679 52.3398 97.8452 51.3719 97.0493 50.9738Z" fill="#DC1735"/>
<path d="M105.083 73.915L98.4279 72.0137C98.1406 71.9316 97.94 71.6656 97.94 71.3668V69.1455C98.4814 68.7704 98.9978 68.3506 99.4806 67.882C101.82 65.6115 103.109 62.5661 103.109 59.3065V56.2414L103.752 54.9547C104.458 53.5421 104.832 51.9606 104.832 50.3815V42.0778C104.832 41.1879 104.11 40.4664 103.22 40.4664H87.7143C82.0759 40.4664 77.4886 45.0538 77.4886 50.6922V50.7882C77.4886 52.1013 77.799 53.4164 78.3862 54.5907L79.2114 56.2411V58.873C79.2114 63.044 81.2668 66.7863 84.3801 69.0383L84.3805 71.3664C84.3805 71.7254 84.3805 71.874 83.05 72.2543L79.8029 73.182L70.4097 69.7664C70.4434 69.3232 70.2939 68.8725 69.9705 68.5328L66.9689 65.3793V60.0855C67.2863 59.8241 67.5991 59.5555 67.9022 59.2715C71.6888 55.7223 73.8605 50.7113 73.8605 45.5234V41.2957C75.0039 38.8076 75.5833 36.1747 75.5833 33.4632V16.2349C75.5833 15.345 74.8619 14.6235 73.972 14.6235H49.8517C41.3632 14.6235 34.4575 21.5295 34.4575 30.0177V33.4636C34.4575 36.1752 35.0369 38.8081 36.1803 41.2962V44.9337C36.1803 50.9571 38.8586 56.3836 43.0719 59.9612V65.3795L40.0703 68.533C39.747 68.8727 39.5974 69.3234 39.6312 69.7666L29.7172 73.3715C28.9988 73.6327 28.3312 73.9866 27.7252 74.4152L26.1684 73.6368C30.8026 71.6197 32.2706 68.7826 32.3411 68.6417C32.568 68.1882 32.568 67.6541 32.3411 67.2005C31.1794 64.8772 31.0387 60.6188 30.9257 57.1972C30.8881 56.0581 30.8524 54.9819 30.7843 54.0237C30.235 46.2949 24.3594 40.4664 17.117 40.4664C9.87465 40.4664 3.99889 46.2947 3.44975 54.0237C3.38164 54.9822 3.34598 56.0583 3.30838 57.1976C3.19537 60.619 3.05443 64.877 1.89299 67.2003C1.66611 67.6539 1.66611 68.188 1.89299 68.6415C1.96346 68.7824 3.42848 71.6136 8.07189 73.6332L3.74773 75.7951C1.43602 76.9519 0 79.2754 0 81.8597V93.764C0 94.6539 0.721445 95.3754 1.61133 95.3754C2.50121 95.3754 3.22266 94.6539 3.22266 93.764V81.8597C3.22266 80.5037 3.97611 79.2844 5.18891 78.6779L10.5735 75.9857L12.4465 77.7657C13.7562 79.0103 15.4363 79.6323 17.117 79.6323C18.7973 79.6323 20.4783 79.0098 21.7875 77.7657L23.6603 75.9859L25.416 76.8638C24.5893 78.1866 24.1201 79.7377 24.1201 81.3626V93.7645C24.1201 94.6544 24.8415 95.3758 25.7314 95.3758C26.6213 95.3758 27.3427 94.6544 27.3427 93.7645V81.3626C27.3427 79.1506 28.7394 77.1564 30.8185 76.4004L41.2711 72.5996L45.6223 79.1267C46.1785 79.9612 47.0699 80.4964 48.0679 80.5952C48.1791 80.6061 48.2898 80.6115 48.4002 80.6115C49.2806 80.6115 50.1239 80.265 50.7543 79.6348L53.4089 76.9802V93.7647C53.4089 94.6546 54.1303 95.376 55.0202 95.376C55.9101 95.376 56.6315 94.6546 56.6315 93.7647V76.9802L59.2861 79.6348C59.9163 80.2652 60.7595 80.6117 61.6402 80.6117C61.7504 80.6117 61.8613 80.6064 61.9723 80.5954C62.9705 80.4966 63.8619 79.9614 64.4181 79.1269L68.7696 72.6L79.2219 76.4008C81.3007 77.1568 82.6977 79.151 82.6977 81.363V93.7649C82.6977 94.6548 83.4191 95.3762 84.309 95.3762C85.1989 95.3762 85.9203 94.6548 85.9203 93.7649V81.363C85.9203 79.1226 85.0302 77.0215 83.537 75.4675L83.9352 75.3539C84.3367 75.2391 84.8845 75.0821 85.4345 74.8124L89.5486 78.9265V93.7649C89.5486 94.6548 90.27 95.3762 91.1599 95.3762C92.0498 95.3762 92.7713 94.6548 92.7713 93.7649V78.9265L96.8567 74.841C97.0739 74.9515 97.3021 75.0447 97.5423 75.1132L104.197 77.0146C105.716 77.4486 106.777 78.8552 106.777 80.4351V93.7649C106.777 94.6548 107.499 95.3762 108.389 95.3762C109.279 95.3762 110 94.6548 110 93.7649V80.4351C110 77.4234 107.978 74.7424 105.083 73.915ZM10.3372 71.069C7.32316 69.9845 5.81131 68.5386 5.16592 67.749C5.60592 66.5988 5.89123 65.2813 6.08437 63.8906C6.97297 66.0213 8.46119 67.8401 10.3372 69.1378V71.069ZM19.568 75.4299C18.1936 76.7357 16.0407 76.7355 14.6667 75.4297L13.1682 74.0057C13.4211 73.532 13.5601 72.9949 13.5601 72.4322V70.7147C14.6841 71.066 15.8791 71.2555 17.1175 71.2555C18.3543 71.2555 19.5486 71.0651 20.6746 70.7158L20.6744 72.432C20.6744 72.9949 20.8132 73.5322 21.0663 74.0061L19.568 75.4299ZM17.1179 68.0328C12.3063 68.0328 8.39201 64.1184 8.39201 59.307C8.39201 58.4171 7.67057 57.6956 6.78068 57.6956C6.69045 57.6956 6.60236 57.7049 6.51621 57.7193C6.52094 57.5807 6.52545 57.4419 6.53018 57.3046C6.56605 56.1967 6.60064 55.1502 6.66445 54.2525C6.87027 51.3573 8.02721 48.6894 9.92213 46.7399C11.834 44.7728 14.3894 43.6895 17.1175 43.6895C19.8455 43.6895 22.4007 44.7728 24.3128 46.7399C26.2077 48.6894 27.3646 51.3573 27.5705 54.2525C27.6341 55.1499 27.6689 56.1962 27.7054 57.304C27.7086 57.3991 27.7118 57.4956 27.7151 57.5914C25.9619 54.8904 23.2545 52.8999 19.7562 51.7758C16.5243 50.7375 13.7446 50.8017 13.6273 50.8047C13.2054 50.8166 12.8049 50.9932 12.5121 51.2969L9.6048 54.3121C8.98713 54.9527 9.0056 55.9728 9.64627 56.5905C10.2869 57.2082 11.307 57.1895 11.9247 56.549L14.3438 54.0403C16.4272 54.1421 23.1296 54.9216 25.7363 60.6615C25.0804 64.8914 21.4448 68.0328 17.1179 68.0328ZM23.8969 71.0744L23.8971 69.1526C25.7716 67.862 27.262 66.0466 28.1512 63.8999C28.3443 65.2873 28.6294 66.6018 29.0686 67.7495C28.4268 68.5315 26.9079 69.9903 23.8969 71.0744ZM39.403 44.9335V40.9357C39.403 40.6931 39.3482 40.4536 39.2427 40.2351C38.2059 38.0879 37.6802 35.8097 37.6802 33.4636V30.018C37.6802 23.3064 43.1404 17.8464 49.8517 17.8464H72.3607V33.4638C72.3607 35.8099 71.8349 38.0881 70.7981 40.2353C70.6926 40.4538 70.6378 40.6933 70.6378 40.9359V45.5239C70.6378 49.8876 68.8836 53.935 65.6984 56.9207C65.3007 57.2932 64.888 57.6426 64.4613 57.9681C64.4518 57.9745 64.4428 57.9816 64.4336 57.9882C61.4496 60.2538 57.7947 61.3549 53.9778 61.1076C45.8049 60.5784 39.403 53.474 39.403 44.9335ZM48.4756 77.3558C48.4645 77.3669 48.4385 77.3934 48.3858 77.3878C48.3334 77.3826 48.3128 77.3519 48.304 77.3386L43.2927 69.8216L44.9054 68.1272L52.5076 73.3236L48.4756 77.3558ZM55.0204 71.1375L46.2945 65.1731V62.1652C48.5523 63.3858 51.0804 64.1491 53.7692 64.3231C54.1939 64.3506 54.6161 64.3642 55.037 64.3642C58.118 64.3642 61.0833 63.6277 63.7463 62.2297V65.1731L55.0204 71.1375ZM61.7369 77.339C61.728 77.3523 61.7074 77.3831 61.655 77.3882C61.6024 77.3949 61.5766 77.3672 61.5652 77.3562L57.5332 73.3242L65.1355 68.1276L66.7483 69.8221L61.7369 77.339ZM91.1599 75.9795L87.5033 72.3231C87.5671 72.0332 87.6032 71.7159 87.603 71.3659L87.6028 70.6859C88.6175 71.0189 89.687 71.2166 90.7936 71.2497C90.9178 71.2536 91.0409 71.2553 91.1646 71.2553C92.3875 71.2553 93.5812 71.0705 94.7173 70.718V71.3668C94.7173 71.6882 94.7577 72.0031 94.8337 72.3059L91.1599 75.9795ZM97.2364 65.5694C95.5286 67.2267 93.2725 68.102 90.8905 68.0285C86.2275 67.8887 82.434 63.7815 82.434 58.8734V55.8611C82.434 55.6108 82.3758 55.3641 82.2639 55.1405L81.2685 53.1497C80.9039 52.4204 80.7112 51.604 80.7112 50.7884V50.6924C80.7112 46.8308 83.8529 43.6893 87.7143 43.6893H101.609V50.3817C101.609 51.4632 101.353 52.5463 100.87 53.5137L100.056 55.1405C99.9442 55.3644 99.886 55.6108 99.886 55.8611V59.3067C99.886 61.6872 98.945 63.9113 97.2364 65.5694Z" fill="#DC1735"/>
<path d="M101.497 81.8156C100.607 81.8156 99.8857 82.537 99.8857 83.4269V93.7641C99.8857 94.654 100.607 95.3754 101.497 95.3754C102.387 95.3754 103.108 94.654 103.108 93.7641V83.4269C103.108 82.5372 102.387 81.8156 101.497 81.8156Z" fill="#DC1735"/>
<path d="M8.50293 83.9454C7.61305 83.9454 6.8916 84.6669 6.8916 85.5568V93.764C6.8916 94.6539 7.61305 95.3753 8.50293 95.3753C9.39281 95.3753 10.1143 94.6539 10.1143 93.764V85.5568C10.1143 84.6671 9.39281 83.9454 8.50293 83.9454Z" fill="#DC1735"/>
<path d="M68.2198 34.0473C62.1256 27.953 49.3748 29.1181 44.1751 29.9019C42.5374 30.1487 41.3489 31.5347 41.3489 33.1974V36.9094C41.3489 37.7993 42.0703 38.5208 42.9602 38.5208C43.8501 38.5208 44.5715 37.7993 44.5715 36.9094V33.1972C44.5715 33.1424 44.6076 33.0955 44.6558 33.0882C46.7326 32.7752 50.854 32.2922 55.124 32.5769C60.1488 32.9114 63.7882 34.1728 65.9412 36.3259C66.5705 36.9552 67.5908 36.9552 68.2198 36.3259C68.8491 35.6966 68.8491 34.6764 68.2198 34.0473Z" fill="#343279"/>
<path d="M36.0688 85.2614C35.179 85.2614 34.4575 85.9828 34.4575 86.8727V93.7642C34.4575 94.6541 35.179 95.3756 36.0688 95.3756C36.9587 95.3756 37.6802 94.6541 37.6802 93.7642V86.8727C37.6802 85.983 36.9587 85.2614 36.0688 85.2614Z" fill="#343279"/>
<path d="M73.9719 85.2614C73.082 85.2614 72.3606 85.9828 72.3606 86.8727V93.7642C72.3606 94.6541 73.082 95.3756 73.9719 95.3756C74.8618 95.3756 75.5833 94.6541 75.5833 93.7642V86.8727C75.5833 85.983 74.8618 85.2614 73.9719 85.2614Z" fill="#343279"/>
</svg>
