<svg width="100" height="100" viewBox="0 0 100 100" fill="none" xmlns="http://www.w3.org/2000/svg">
<path d="M64.0635 19.5936H55.0664C53.9871 19.5936 53.1123 20.4684 53.1123 21.5477V30.56C53.1123 31.6393 53.9871 32.5141 55.0664 32.5141H64.0635C65.1428 32.5141 66.0176 31.6393 66.0176 30.56V21.5477C66.0176 20.4684 65.1428 19.5936 64.0635 19.5936ZM62.1094 28.6057H57.0205V23.5018H62.1094V28.6057Z" fill="#343279"/>
<path d="M46.3437 19.5936H37.3467C36.2674 19.5936 35.3926 20.4684 35.3926 21.5477V30.56C35.3926 31.6393 36.2674 32.5141 37.3467 32.5141H46.3437C47.423 32.5141 48.2979 31.6393 48.2979 30.56V21.5477C48.298 20.4684 47.423 19.5936 46.3437 19.5936ZM44.3896 28.6057H39.3008V23.5018H44.3896V28.6057Z" fill="#343279"/>
<path d="M55.0664 39.4326H64.0635C65.1428 39.4326 66.0176 40.3074 66.0176 41.3867V50.399C66.0176 51.4783 65.1428 52.3531 64.0635 52.3531H55.0664C53.9871 52.3531 53.1123 51.4783 53.1123 50.399V41.3867C53.1123 40.3074 53.9871 39.4326 55.0664 39.4326Z" fill="#DC1735"/>
<path d="M46.3437 39.4326H37.3467C36.2674 39.4326 35.3926 40.3074 35.3926 41.3867V50.399C35.3926 51.4783 36.2674 52.3531 37.3467 52.3531H46.3437C47.423 52.3531 48.2979 51.4783 48.2979 50.399V41.3867C48.298 40.3074 47.423 39.4326 46.3437 39.4326ZM44.3896 48.4447H39.3008V43.3408H44.3896V48.4447Z" fill="#343279"/>
<path d="M64.0635 59.2717H55.0664C53.9871 59.2717 53.1123 60.1465 53.1123 61.2258V70.2379C53.1123 71.3172 53.9871 72.192 55.0664 72.192H64.0635C65.1428 72.192 66.0176 71.3172 66.0176 70.2379V61.2258C66.0176 60.1467 65.1428 59.2717 64.0635 59.2717Z" fill="#DC1735"/>
<path d="M46.3437 59.2717H37.3467C36.2674 59.2717 35.3926 60.1465 35.3926 61.2258V70.2379C35.3926 71.3172 36.2674 72.192 37.3467 72.192H46.3437C47.423 72.192 48.2979 71.3172 48.2979 70.2379V61.2258C48.298 60.1467 47.423 59.2717 46.3437 59.2717Z" fill="#DC1735"/>
<path d="M90.6133 96.0918H74.1209V10.9299C74.1209 9.85059 73.2461 8.97578 72.1668 8.97578H68.0068V1.9543C68.0068 0.874805 67.132 0 66.0527 0H35.3574C34.2781 0 33.4033 0.874805 33.4033 1.9541V8.97559H29.2434C28.1641 8.97559 27.2893 9.85059 27.2893 10.9297V96.0918H9.38672C8.30742 96.0918 7.43262 96.9666 7.43262 98.0459C7.43262 99.1252 8.30742 100 9.38672 100H90.6133C91.6926 100 92.5674 99.1252 92.5674 98.0459C92.5674 96.9666 91.6926 96.0918 90.6133 96.0918ZM37.3115 3.9082H64.0986V8.97559H37.3115V3.9082ZM44.8256 96.0918V85.1607H56.5844V96.0918H44.8256ZM60.4928 96.0918V83.2066C60.4928 82.1273 59.618 81.2525 58.5387 81.2525H42.8715C41.7922 81.2525 40.9174 82.1273 40.9174 83.2066V96.0918H31.1975V12.884H70.2127V96.0918H60.4928Z" fill="#343279"/>
</svg>
