<svg width="41" height="41" viewBox="0 0 41 41" fill="none" xmlns="http://www.w3.org/2000/svg">
<path d="M20.5001 22.1332C16.7315 22.1332 13.6667 19.0685 13.6667 15.2999C13.6667 11.5313 16.7315 8.46655 20.5001 8.46655C24.2687 8.46655 27.3334 11.5313 27.3334 15.2999C27.3334 19.0685 24.2687 22.1332 20.5001 22.1332ZM20.5001 10.1749C17.6745 10.1749 15.3751 12.4743 15.3751 15.2999C15.3751 18.1255 17.6745 20.4249 20.5001 20.4249C23.3257 20.4249 25.6251 18.1255 25.6251 15.2999C25.6251 12.4743 23.3257 10.1749 20.5001 10.1749Z" fill="#495057"/>
<path d="M11.5535 25.6591L10.9436 25.0612C8.29229 22.4662 6.83337 19 6.83337 15.2998C6.83337 11.5995 8.29229 8.1333 10.9436 5.53835L11.5535 4.94043L12.7493 6.16018L12.1377 6.7581C9.81954 9.03018 8.54171 12.0625 8.54171 15.2998C8.54171 18.5371 9.81954 21.5693 12.1377 23.8414L12.7476 24.4393L11.5535 25.6591Z" fill="#495057"/>
<path d="M29.4449 25.6591L28.2507 24.4376L28.8623 23.8414C31.1805 21.5693 32.4584 18.5371 32.4584 15.2998C32.4584 12.0625 31.1805 9.03018 28.8623 6.7581L28.2524 6.16018L29.4466 4.94043L30.0564 5.53835C32.7078 8.1333 34.1667 11.5995 34.1667 15.2998C34.1667 19 32.7078 22.4662 30.0564 25.0629L29.4449 25.6591Z" fill="#495057"/>
<path d="M7.08788 30.6014L6.46263 30.0188C2.296 26.1478 0 20.9203 0 15.2998C0 9.68113 2.296 4.45363 6.46263 0.580833L7.08788 0L8.25125 1.2505L7.626 1.83133C3.80958 5.37783 1.70833 10.1612 1.70833 15.2998C1.70833 20.4385 3.80958 25.2235 7.626 28.7683L8.25125 29.3492L7.08788 30.6014Z" fill="#495057"/>
<path d="M33.9139 30.6014L32.7488 29.3509L33.374 28.7683C37.1904 25.2218 39.2917 20.4385 39.2917 15.2998C39.2917 10.1612 37.1904 5.37783 33.374 1.83133L32.7488 1.2505L33.9139 0L34.5391 0.580833C38.704 4.45363 41 9.68113 41 15.2998C41 20.9203 38.704 26.1478 34.5391 30.0188L33.9139 30.6014Z" fill="#495057"/>
<path d="M20.5 40.9247C18.696 40.9247 17.2285 39.4573 17.2285 37.6533V20.9048H18.9368V37.6533C18.9368 38.516 19.639 39.2164 20.5 39.2164C21.361 39.2164 22.0631 38.516 22.0631 37.6533V20.9048H23.7714V37.6533C23.7714 39.4573 22.3057 40.9247 20.5 40.9247Z" fill="#495057"/>
</svg>
