<svg width="100" height="100" viewBox="0 0 100 100" fill="none" xmlns="http://www.w3.org/2000/svg">
<path d="M61.5445 28.9227C61.5442 26.6394 60.8669 24.4076 59.5982 22.5093C58.3295 20.611 56.5263 19.1316 54.4168 18.258C52.3073 17.3845 49.9861 17.1561 47.7468 17.6017C45.5075 18.0473 43.4506 19.147 41.8362 20.7616C40.2218 22.3762 39.1225 24.4332 38.6772 26.6726C38.2318 28.912 38.4605 31.2331 39.3344 33.3425C40.2082 35.4519 41.6879 37.2548 43.5864 38.5233C45.4848 39.7917 47.7168 40.4688 50 40.4688C53.0609 40.465 55.9954 39.2473 58.1597 37.0828C60.3239 34.9182 61.5412 31.9836 61.5445 28.9227ZM41.1898 28.9227C41.1901 27.1803 41.7071 25.4771 42.6754 24.0284C43.6436 22.5798 45.0197 21.4508 46.6296 20.7843C48.2394 20.1177 50.0108 19.9434 51.7197 20.2836C53.4286 20.6237 54.9983 21.4629 56.2303 22.6951C57.4622 23.9273 58.3012 25.4971 58.641 27.206C58.9808 28.915 58.8062 30.6863 58.1394 32.2961C57.4725 33.9059 56.3433 35.2817 54.8945 36.2497C53.4457 37.2177 51.7424 37.7344 50 37.7344C47.6639 37.7317 45.4244 36.8024 43.7727 35.1504C42.121 33.4985 41.1921 31.2587 41.1898 28.9227Z" fill="#DC1735"/>
<path d="M75.8617 28.9272C75.8624 22.0687 73.1388 15.4907 68.2899 10.6402C63.4405 5.7892 56.8628 3.0633 50.0036 3.06213C43.1445 3.06097 36.5658 5.78465 31.7148 10.634C26.8641 15.483 24.1383 22.0602 24.1367 28.9189C24.078 38.7675 28.1863 50.5713 36.2704 63.9868H16.0711H16.0709C15.6928 63.9869 15.3236 64.1018 15.0121 64.3163L15.2957 64.7281L15.0121 64.3163C14.7007 64.5308 14.4617 64.8347 14.3267 65.188L14.3266 65.1883L3.18319 94.4061C3.18316 94.4062 3.18314 94.4063 3.18311 94.4063C3.0747 94.6891 3.03674 94.994 3.07252 95.2947C3.1083 95.5955 3.21679 95.883 3.38859 96.1325C3.56039 96.3819 3.79035 96.5858 4.0586 96.7265C4.32685 96.8671 4.62531 96.9404 4.92821 96.9399L75.8617 28.9272ZM75.8617 28.9272C75.8617 28.9278 75.8617 28.9284 75.8617 28.929L75.3617 28.9289L75.8617 28.9259C75.8617 28.9264 75.8617 28.9268 75.8617 28.9272ZM27.8719 28.9257V28.9228C27.8724 26.0169 28.4453 23.1395 29.5578 20.455C30.6703 17.7705 32.3006 15.3314 34.3558 13.2769C36.4109 11.2225 38.8506 9.59298 41.5355 8.4814C44.2204 7.36982 47.0979 6.79796 50.0038 6.79846C52.9097 6.79896 55.7871 7.37182 58.4716 8.48433C61.1561 9.59683 63.5952 11.2272 65.6497 13.2823C67.7041 15.3375 69.3336 17.7772 70.4452 20.4621C71.5568 23.147 72.1286 26.0245 72.1281 28.9304L72.1281 28.9335C72.1859 38.5095 67.7303 49.2582 62.6423 58.3737C57.8317 66.9924 52.4932 74.0862 49.9999 77.2431C47.5066 74.0873 42.1681 66.9956 37.3574 58.3769C32.2694 49.2613 27.8137 38.5099 27.8719 28.9257ZM48.5721 81.411L48.5721 81.4111L48.5778 81.4178C48.753 81.6238 48.971 81.7893 49.2166 81.9029C49.4622 82.0164 49.7295 82.0752 50 82.0752C50.2705 82.0752 50.5379 82.0164 50.7834 81.9029C51.029 81.7893 51.247 81.6238 51.4223 81.4178L51.4223 81.4178L51.4279 81.411C55.0124 77.0444 58.3397 72.4728 61.3929 67.7196H82.6399L84.085 71.5097L42.1817 86.4127L27.7931 67.7172H38.6055C41.6591 72.4713 44.987 77.0436 48.5721 81.411ZM34.2243 93.2055L42.0457 90.4219H42.0534L42.1347 90.393L67.2823 81.4522L76.328 93.2055H34.2243ZM7.63757 93.2047L17.3585 67.7172H23.0804L38.4809 87.7283L23.0833 93.2047H7.63757ZM92.364 93.2055H81.0438L70.9817 80.1319L85.4195 74.9974L92.364 93.2055Z" fill="#343279" stroke="#343279"/>
</svg>
