<svg width="100" height="100" viewBox="0 0 100 100" fill="none" xmlns="http://www.w3.org/2000/svg">
<g clip-path="url(#clip0_2035_0)">
<path d="M50.3429 53.401C65.0658 53.401 77.0435 41.4232 77.0435 26.7004C77.0435 11.9777 65.0658 0 50.3429 0C35.6201 0 23.6423 11.9777 23.6423 26.7004C23.6423 41.4232 35.6203 53.401 50.3429 53.401ZM50.3429 2.93535C63.447 2.93535 74.108 13.5963 74.108 26.7004C74.108 39.8045 63.447 50.4656 50.3429 50.4656C37.2388 50.4656 26.5777 39.8047 26.5777 26.7004C26.5777 13.5965 37.2388 2.93535 50.3429 2.93535Z" fill="#343279"/>
<path d="M50.3428 46.0106C60.9905 46.0106 69.653 37.3481 69.653 26.7006C69.653 16.0531 60.9905 7.39062 50.3428 7.39062C45.5364 7.39062 40.9302 9.16777 37.3727 12.3947C36.7723 12.9395 36.7272 13.8676 37.2717 14.468C37.8165 15.0684 38.7448 15.1139 39.345 14.5689C42.3612 11.8328 46.2671 10.326 50.3428 10.326C59.3719 10.326 66.7176 17.6717 66.7176 26.7006C66.7176 35.7295 59.3719 43.0752 50.3428 43.0752C41.3139 43.0752 33.9684 35.7297 33.9684 26.7006C33.9684 23.974 34.6514 21.2754 35.9438 18.8965C36.3307 18.1842 36.0671 17.2932 35.3548 16.9063C34.6427 16.5191 33.7516 16.7832 33.3645 17.4953C31.8393 20.3029 31.0331 23.4861 31.0331 26.7006C31.0331 37.3481 39.6954 46.0106 50.3428 46.0106Z" fill="#343279"/>
<path d="M49.7847 33.6154C47.4796 33.475 46.8464 32.0876 46.7291 31.7617C46.5611 31.1343 45.9904 30.6718 45.3101 30.6718C44.498 30.6718 43.8396 31.3302 43.8396 32.1425C43.8396 32.2605 43.855 32.3746 43.8812 32.4845L43.8806 32.4847C43.882 32.49 43.8847 32.5001 43.8884 32.5128C43.9064 32.5822 43.9277 32.6501 43.9552 32.7152C44.2267 33.464 45.3144 35.7873 48.5199 36.408V38.3609C48.5199 39.1714 49.1771 39.8287 49.9876 39.8287C50.7984 39.8287 51.4554 39.1716 51.4554 38.3609V36.4521C52.8603 36.2076 53.8041 35.5935 54.3941 35.0382C55.4919 34.005 56.1474 32.4433 56.1474 30.8605C56.1474 29.3732 55.5642 25.8498 50.1613 25.2537C49.091 25.1355 48.3275 24.7949 47.8917 24.2414C47.5072 23.7525 47.4656 23.2125 47.4656 23.0029C47.4656 22.7447 47.5365 20.4808 49.9876 20.4808C51.5959 20.4808 52.2453 21.5037 52.3673 21.7261C52.5849 22.2664 53.113 22.648 53.731 22.648C54.5431 22.648 55.2015 21.9896 55.2015 21.1775C55.2015 20.9361 55.1421 20.7087 55.039 20.5078L55.0398 20.5074C54.6261 19.6082 53.458 18.2013 51.4552 17.7169V15.7468C51.4552 14.9363 50.7982 14.2791 49.9875 14.2791C49.1769 14.2791 48.5197 14.9363 48.5197 15.7468V17.7107C45.6228 18.3986 44.5298 21.1015 44.5298 23.0027C44.5298 25.1166 45.9203 27.7386 49.839 28.171C53.2117 28.5433 53.2117 30.2873 53.2117 30.8603C53.2117 31.4691 52.9939 32.3248 52.3822 32.9003C51.8039 33.4447 50.9304 33.6853 49.7847 33.6154Z" fill="#DC1735"/>
<path d="M25.4371 67.9676C25.1597 67.6727 24.7728 67.5055 24.3679 67.5055C23.963 67.5055 23.5763 67.6727 23.2988 67.9676L13.3287 78.5668C12.9275 78.9934 12.8183 79.6174 13.0505 80.1547C13.2828 80.6922 13.8123 81.0401 14.3978 81.0401H17.2795V86.3699C17.2795 87.1805 17.9367 87.8377 18.7472 87.8377C19.5578 87.8377 20.215 87.1805 20.215 86.3699V79.5723C20.215 78.7617 19.5578 78.1045 18.7472 78.1045H17.7933L24.3677 71.1151L30.9422 78.1045H29.9882C29.1777 78.1045 28.5205 78.7617 28.5205 79.5723V97.0645H20.2146V92.2409C20.2146 91.4303 19.5574 90.7731 18.7468 90.7731C17.9363 90.7731 17.2791 91.4303 17.2791 92.2409V98.5323C17.2791 99.3428 17.9363 100 18.7468 100H29.988C30.7986 100 31.4558 99.3428 31.4558 98.5323V81.0401H34.3375C34.9228 81.0401 35.4523 80.6922 35.6847 80.1547C35.917 79.6174 35.8078 78.9932 35.4066 78.5668L25.4371 67.9676Z" fill="#343279"/>
<path d="M51.4119 57.8699C51.1346 57.575 50.7477 57.4078 50.3428 57.4078C49.9379 57.4078 49.5512 57.575 49.2737 57.8699L39.3037 68.4694C38.9026 68.8959 38.7932 69.5199 39.0256 70.0572C39.2578 70.5947 39.7873 70.9426 40.3729 70.9426H43.2545V98.5322C43.2545 99.3428 43.9117 100 44.7223 100H55.9635C56.7742 100 57.4313 99.3428 57.4313 98.5322V70.9426H60.3129C60.8985 70.9426 61.4278 70.5947 61.6602 70.0572C61.8924 69.5199 61.783 68.8957 61.3819 68.4694L51.4119 57.8699ZM55.9635 68.0072C55.1528 68.0072 54.4957 68.6645 54.4957 69.475V97.0647H46.1899V69.4748C46.1899 68.6643 45.5326 68.0071 44.7221 68.0071H43.7682L50.3426 61.0176L56.917 68.0071H55.9635V68.0072Z" fill="#343279"/>
<path d="M77.3869 48.5273C77.1096 48.2324 76.7227 48.0652 76.3178 48.0652C75.9131 48.0652 75.526 48.2324 75.2486 48.5273L65.2785 59.1265C64.8773 59.5529 64.768 60.1771 65.0002 60.7144C65.2326 61.2519 65.7619 61.5998 66.3475 61.5998H69.2291V70.5566C69.2291 71.3671 69.8861 72.0244 70.6969 72.0244C71.5076 72.0244 72.1646 71.3671 72.1646 70.5566V60.1322C72.1646 59.3216 71.5076 58.6644 70.6969 58.6644H69.7432L76.3176 51.675L82.8918 58.6644H81.9381C81.1273 58.6644 80.4703 59.3216 80.4703 60.1322V97.0646H72.1645V76.4275C72.1645 75.6169 71.5074 74.9597 70.6967 74.9597C69.8859 74.9597 69.2289 75.6168 69.2289 76.4275V98.5324C69.2289 99.3429 69.8859 100 70.6967 100H81.9381C82.7488 100 83.4059 99.3429 83.4059 98.5324V61.5998H86.2875C86.873 61.5998 87.4023 61.2519 87.6348 60.7144C87.867 60.1771 87.7576 59.5529 87.3565 59.1265L77.3869 48.5273Z" fill="#343279"/>
<path d="M18.126 27.2258C18.126 26.4153 17.4688 25.7581 16.6582 25.7581H8.0498C7.23926 25.7581 6.58203 26.4153 6.58203 27.2258C6.58203 28.0364 7.23906 28.6936 8.0498 28.6936H16.6582C17.4689 28.6934 18.126 28.0364 18.126 27.2258Z" fill="#DC1735"/>
<path d="M18.557 38.7441L15.4953 39.9435C14.7404 40.2392 14.3683 41.0908 14.664 41.8455C14.8908 42.4244 15.4447 42.7781 16.031 42.7781C16.2092 42.7781 16.3902 42.7455 16.566 42.6765L19.6277 41.4771C20.3826 41.1814 20.7547 40.3298 20.459 39.5752C20.1631 38.8207 19.3115 38.4484 18.557 38.7441Z" fill="#DC1735"/>
<path d="M15.4953 14.5076L18.557 15.707C18.733 15.776 18.9138 15.8086 19.0919 15.8086C19.6783 15.8086 20.2322 15.4547 20.4589 14.876C20.7546 14.1213 20.3826 13.2697 19.6277 12.974L16.566 11.7746C15.8109 11.4789 14.9597 11.8512 14.664 12.6059C14.3683 13.3604 14.7406 14.2119 15.4953 14.5076Z" fill="#DC1735"/>
<path d="M91.9502 25.7581H83.3418C82.5311 25.7581 81.874 26.4153 81.874 27.2258C81.874 28.0364 82.5311 28.6936 83.3418 28.6936H91.9502C92.7609 28.6936 93.418 28.0364 93.418 27.2258C93.4178 26.4153 92.7607 25.7581 91.9502 25.7581Z" fill="#DC1735"/>
<path d="M80.3723 41.4776L83.4338 42.677C83.6098 42.7459 83.7908 42.7786 83.969 42.7786C84.5553 42.7786 85.1092 42.4247 85.336 41.8459C85.6317 41.0913 85.2596 40.2397 84.5049 39.944L81.4434 38.7446C80.6879 38.4489 79.8371 38.8211 79.5412 39.5758C79.2455 40.3301 79.6176 41.1817 80.3723 41.4776Z" fill="#DC1735"/>
<path d="M80.9082 15.8087C81.0864 15.8087 81.2676 15.776 81.4434 15.7071L84.5049 14.5077C85.2596 14.212 85.6317 13.3604 85.336 12.6057C85.0401 11.8508 84.1883 11.4792 83.4338 11.7745L80.3723 12.9739C79.6176 13.2696 79.2455 14.1212 79.5412 14.8758C79.768 15.4549 80.3219 15.8087 80.9082 15.8087Z" fill="#DC1735"/>
</g>
<defs>
<clipPath id="clip0_2035_0">
<rect width="100" height="100" fill="white"/>
</clipPath>
</defs>
</svg>
