<svg width="90" height="90" viewBox="0 0 90 90" fill="none" xmlns="http://www.w3.org/2000/svg">
<g clip-path="url(#clip0_2054_1410)">
<path d="M70.2143 9.64285V10.1429H70.7143H80.3571C85.4066 10.1429 89.5 14.2362 89.5 19.2857V80.3571C89.5 85.4066 85.4066 89.5 80.3571 89.5H9.64285C4.59339 89.5 0.5 85.4066 0.5 80.3571V19.2857C0.5 14.2362 4.59339 10.1429 9.64285 10.1429H19.2857H19.7857V9.64285V3.21435C19.7857 1.71524 21.0011 0.5 22.5 0.5C23.999 0.5 25.2142 1.71521 25.2142 3.21435V9.64285V10.1429H25.7142H64.2856H64.7856V9.64285V3.21435C64.7856 1.71522 66.0008 0.5 67.5 0.5C68.9991 0.5 70.2143 1.71523 70.2143 3.21435V9.64285ZM6.4285 38.0714H5.9285V38.5714V80.3571C5.9285 82.4086 7.59144 84.0715 9.64285 84.0715H80.357C82.4084 84.0715 84.0713 82.4086 84.0713 80.3571V38.5714V38.0714H83.5713H6.4285ZM5.9285 32.1429V32.6429H6.4285H83.5713H83.5717H84.0717V32.1429V19.2857C84.0717 17.2343 82.4087 15.5714 80.3573 15.5714H70.7145H70.2145V16.0714V22.4999C70.2145 23.999 68.9993 25.2142 67.5001 25.2142C66.001 25.2142 64.7858 23.999 64.7858 22.4999V16.0714V15.5714H64.2858H25.7144H25.2144V16.0714V22.4999C25.2144 23.999 23.9992 25.2142 22.5 25.2142C21.0009 25.2142 19.7857 23.999 19.7857 22.4999V16.0714V15.5714H19.2857H9.64285C7.59144 15.5714 5.9285 17.2343 5.9285 19.2857V32.1429Z" fill="#343279" stroke="#FDEDF3"/>
<path d="M63.0542 48.479C62.0332 47.4929 60.4147 47.4929 59.3938 48.479L40.1799 67.6928L31.5042 59.0171C30.4576 58.0063 28.7898 58.0353 27.779 59.0818C26.7929 60.1028 26.7929 61.7213 27.779 62.7423L38.3173 73.2806C39.3461 74.309 41.0138 74.309 42.0425 73.2806L63.1189 52.2042C64.1297 51.1576 64.1007 49.4898 63.0542 48.479Z" fill="#DC1735"/>
</g>
<defs>
<clipPath id="clip0_2054_1410">
<rect width="90" height="90" fill="white"/>
</clipPath>
</defs>
</svg>
